<svg width="16" height="36" viewBox="0 0 16 36" fill="none" xmlns="http://www.w3.org/2000/svg">
<path d="M12.7896 15.6256H14.049C15.0372 15.6256 15.5313 15.0879 15.5313 14.1434V10.9757C15.5313 7.13952 13.4726 5.04222 9.96066 4.4852V1.48215C9.96066 0.537642 9.42297 0 8.47838 0H7.21893C6.27435 0 5.73666 0.537642 5.73666 1.48215V4.4852C2.22473 5.04222 0.166016 7.13952 0.166016 10.9757V25.0028C0.166016 29.0279 2.22473 30.9944 5.73666 31.5079V34.1137C5.73666 35.0582 6.27435 35.5959 7.21893 35.5959H8.47838C9.42297 35.5959 9.96066 35.0582 9.96066 34.1137V31.503C13.4726 30.9799 15.5313 28.9892 15.5313 25.0028V21.0747C15.5313 20.1301 15.0372 19.5925 14.049 19.5925H12.7896C11.845 19.5925 11.3073 20.1301 11.3073 21.0747V24.194C11.3073 26.9355 10.1399 27.9236 7.84867 27.9236C5.55744 27.9236 4.39002 26.9355 4.39002 24.194V11.7846C4.39002 9.04307 5.55744 8.05497 7.84867 8.05497C10.1399 8.05497 11.3073 9.04307 11.3073 11.7846V14.1434C11.3073 15.0879 11.845 15.6256 12.7896 15.6256Z" fill="#232323"/>
</svg>
