<svg width="114" height="119" viewBox="0 0 114 119" fill="none" xmlns="http://www.w3.org/2000/svg">
<path d="M103 67.5C103 95.9427 79.9427 119 51.5 119C23.0573 119 0 95.9427 0 67.5C0 39.0573 23.0573 16 51.5 16C79.9427 16 103 39.0573 103 67.5Z" fill="#232323"/>
<mask id="path-2-outside-1_15_1569" maskUnits="userSpaceOnUse" x="6" y="22" width="92" height="92" fill="black">
<rect fill="white" x="6" y="22" width="92" height="92"/>
<path fill-rule="evenodd" clip-rule="evenodd" d="M51.8241 112.648C76.5797 112.648 96.6481 92.5797 96.6481 67.8241C96.6481 43.0684 76.5797 23 51.8241 23C27.0684 23 7 43.0684 7 67.8241C7 92.5797 27.0684 112.648 51.8241 112.648ZM51.8241 106.926C73.4194 106.926 90.9259 89.4194 90.9259 67.8241C90.9259 46.2287 73.4194 28.7222 51.8241 28.7222C30.2287 28.7222 12.7222 46.2287 12.7222 67.8241C12.7222 89.4194 30.2287 106.926 51.8241 106.926Z"/>
</mask>
<path fill-rule="evenodd" clip-rule="evenodd" d="M51.8241 112.648C76.5797 112.648 96.6481 92.5797 96.6481 67.8241C96.6481 43.0684 76.5797 23 51.8241 23C27.0684 23 7 43.0684 7 67.8241C7 92.5797 27.0684 112.648 51.8241 112.648ZM51.8241 106.926C73.4194 106.926 90.9259 89.4194 90.9259 67.8241C90.9259 46.2287 73.4194 28.7222 51.8241 28.7222C30.2287 28.7222 12.7222 46.2287 12.7222 67.8241C12.7222 89.4194 30.2287 106.926 51.8241 106.926Z" fill="url(#paint0_linear_15_1569)"/>
<path d="M95.6481 67.8241C95.6481 92.0274 76.0274 111.648 51.8241 111.648V113.648C77.132 113.648 97.6481 93.132 97.6481 67.8241H95.6481ZM51.8241 24C76.0274 24 95.6481 43.6207 95.6481 67.8241H97.6481C97.6481 42.5161 77.132 22 51.8241 22V24ZM8 67.8241C8 43.6207 27.6207 24 51.8241 24V22C26.5161 22 6 42.5161 6 67.8241H8ZM51.8241 111.648C27.6207 111.648 8 92.0274 8 67.8241H6C6 93.132 26.5161 113.648 51.8241 113.648V111.648ZM89.9259 67.8241C89.9259 88.8671 72.8671 105.926 51.8241 105.926V107.926C73.9717 107.926 91.9259 89.9717 91.9259 67.8241H89.9259ZM51.8241 29.7222C72.8671 29.7222 89.9259 46.781 89.9259 67.8241H91.9259C91.9259 45.6764 73.9717 27.7222 51.8241 27.7222V29.7222ZM13.7222 67.8241C13.7222 46.781 30.781 29.7222 51.8241 29.7222V27.7222C29.6764 27.7222 11.7222 45.6764 11.7222 67.8241H13.7222ZM51.8241 105.926C30.781 105.926 13.7222 88.8671 13.7222 67.8241H11.7222C11.7222 89.9717 29.6764 107.926 51.8241 107.926V105.926Z" fill="#00FFBB" mask="url(#path-2-outside-1_15_1569)"/>
<path d="M67.0982 54.8201H35.81C32.9893 54.8201 30.7026 57.1068 30.7026 59.9274C30.7026 62.7481 32.9893 65.0348 35.81 65.0348H67.0982C69.9189 65.0348 72.2056 62.7481 72.2056 59.9274C72.2056 57.1068 69.9189 54.8201 67.0982 54.8201Z" fill="white" stroke="#232323" stroke-width="5"/>
<path d="M80.1528 15.5046C82.9734 15.5046 85.2601 13.2179 85.2601 10.3972V7.60735C85.2601 4.78669 82.9734 2.5 80.1528 2.5C77.3321 2.5 75.0454 4.78669 75.0454 7.60735V10.3972C75.0454 13.2179 77.3321 15.5046 80.1528 15.5046Z" fill="white" stroke="#232323" stroke-width="5"/>
<path d="M65.2784 15.4635L67.0462 13.6958C69.0407 15.6903 69.0407 18.924 67.0463 20.9186L65.2784 15.4635ZM65.2784 15.4635L67.0461 13.6958L65.0735 11.7231C65.0735 11.7231 65.0734 11.723 65.0734 11.723C63.0788 9.72827 59.8449 9.72854 57.8504 11.723C55.8558 13.7176 55.8558 16.9513 57.8504 18.9459L59.8231 20.9186C59.8231 20.9186 59.8232 20.9187 59.8232 20.9187M65.2784 15.4635L59.8232 20.9187M59.8232 20.9187C61.8175 22.9132 65.0515 22.9136 67.0462 20.9187H59.8232Z" fill="white" stroke="#232323" stroke-width="5"/>
<path d="M100.443 47.1383C100.444 47.1383 100.444 47.1384 100.444 47.1384L102.416 49.111C104.411 51.1056 104.411 54.3392 102.416 56.3338L100.443 47.1383ZM100.443 47.1383C98.4489 45.1436 95.215 45.1438 93.2206 47.1383M100.443 47.1383L93.2206 47.1383M93.2206 47.1383C91.226 49.1329 91.226 52.3666 93.2206 54.3612M93.2206 47.1383L93.2206 54.3612M93.2206 54.3612L95.1932 56.3338M93.2206 54.3612L95.1932 56.3338M95.1932 56.3338C95.1932 56.3339 95.1933 56.3339 95.1933 56.334M95.1932 56.3338L95.1933 56.334M95.1933 56.334C97.1876 58.3285 100.422 58.3289 102.416 56.334H95.1933Z" fill="white" stroke="#232323" stroke-width="5"/>
<path d="M106.388 28.9384H103.599C100.778 28.9384 98.4912 31.225 98.4912 34.0457C98.4912 36.8664 100.778 39.1531 103.599 39.1531H106.388C109.209 39.1531 111.496 36.8664 111.496 34.0457C111.496 31.225 109.209 28.9384 106.388 28.9384Z" fill="white" stroke="#232323" stroke-width="5"/>
<path d="M100.468 20.9433L102.441 18.9707C104.435 16.9761 104.435 13.7424 102.441 11.7478C100.446 9.75305 97.2122 9.75332 95.2177 11.7478L93.245 13.7205C91.2504 15.7151 91.2504 18.9489 93.245 20.9435C95.2391 22.9377 98.4733 22.9383 100.468 20.9435C100.468 20.9434 100.468 20.9434 100.468 20.9433Z" fill="white" stroke="#232323" stroke-width="5"/>
<path d="M35.81 54.6072H61.8922C64.7129 54.6072 66.9996 52.3205 66.9996 49.4998C66.9996 46.6791 64.7129 44.3925 61.8922 44.3925H35.81C32.9893 44.3925 30.7026 46.6791 30.7026 49.4998C30.7026 52.3205 32.9893 54.6072 35.81 54.6072Z" fill="white" stroke="#232323" stroke-width="5"/>
<path d="M45.2756 72.4421L45.2753 72.4424L38.3093 79.2537V76.0941C38.3093 73.2735 36.0226 70.9868 33.2019 70.9868H33.0368C30.1044 70.9868 27.7147 68.5971 27.7147 65.6647V44.4582C27.7147 41.5259 30.1044 39.1362 33.0368 39.1362H60.1205C62.0782 46.3164 67.7982 51.9539 75.0269 53.793V65.6647C75.0269 68.5971 72.6372 70.9868 69.7049 70.9868H48.846C47.5111 70.9868 46.2296 71.5095 45.2756 72.4421ZM100.894 33.6812C100.894 22.2366 91.5875 12.9297 80.143 12.9297C70.3336 12.9297 62.1002 19.7645 59.9433 28.9215H33.0368C24.4676 28.9215 17.5 35.889 17.5 44.4582V65.6647C17.5 72.5099 21.9433 78.3268 28.0945 80.3955V91.3906C28.0945 95.9359 33.5612 98.1823 36.7726 95.0424L50.9281 81.2015H69.7049C78.274 81.2015 85.2416 74.2339 85.2416 65.6647V53.7973C94.2273 51.5191 100.894 43.3695 100.894 33.6812ZM80.143 44.2179C74.3352 44.2179 69.6062 39.4889 69.6062 33.6812C69.6062 27.8734 74.3352 23.1444 80.143 23.1444C85.9507 23.1444 90.6797 27.8734 90.6797 33.6812C90.6797 39.4889 85.9507 44.2179 80.143 44.2179Z" fill="white" stroke="#232323" stroke-width="5"/>
<path d="M79.3086 23.629L79.3078 23.6292L76.7005 24.4983L76.7004 24.4983C74.0244 25.3904 72.5785 28.2828 73.4702 30.9585L73.4703 30.9589C73.9558 32.4149 74.8995 33.2968 75.8155 33.7992V38.8864C75.8155 41.7071 78.1022 43.9938 80.9228 43.9938C83.7435 43.9938 86.0302 41.7071 86.0302 38.8864V28.4747C86.0302 28.4746 86.0302 28.4745 86.0302 28.4744C86.0304 24.9909 82.6153 22.5278 79.3086 23.629Z" fill="white" stroke="#232323" stroke-width="5"/>
<defs>
<linearGradient id="paint0_linear_15_1569" x1="51.8241" y1="23" x2="51.8241" y2="112.648" gradientUnits="userSpaceOnUse">
<stop stop-color="#016248"/>
<stop offset="0.29" stop-color="#00FFBB"/>
<stop offset="0.475" stop-color="#DCFFF6"/>
<stop offset="0.65" stop-color="#00FFBB"/>
<stop offset="1" stop-color="#016248"/>
</linearGradient>
</defs>
</svg>
