<svg width="21" height="23" viewBox="0 0 21 23" fill="none" xmlns="http://www.w3.org/2000/svg">
<path d="M17.4775 0.580078H7.27455C5.79249 0.580078 4.58668 1.68382 4.58668 3.04044V3.3424H2.80896C1.3269 3.3424 0.121094 4.44615 0.121094 5.80277V20.3499C0.121094 21.7066 1.3269 22.8103 2.80896 22.8103H13.0119C14.494 22.8103 15.6997 21.7066 15.6997 20.3499V20.048H17.4774C18.9595 20.048 20.1653 18.9442 20.1653 17.5876V3.04044C20.1654 1.68382 18.9596 0.580078 17.4775 0.580078ZM13.966 20.3499C13.966 20.8315 13.538 21.2233 13.0121 21.2233H2.80896C2.28292 21.2233 1.8549 20.8315 1.8549 20.3499V5.80266C1.8549 5.32115 2.28292 4.92936 2.80896 4.92936H13.0119C13.538 4.92936 13.9659 5.32115 13.9659 5.80266V20.3499H13.966ZM18.4316 17.5876C18.4316 18.0691 18.0036 18.4609 17.4775 18.4609H15.6998V5.80266C15.6998 4.44604 14.494 3.3423 13.0121 3.3423H6.32049V3.04033C6.32049 2.55882 6.74851 2.16703 7.27455 2.16703H17.4775C18.0036 2.16703 18.4316 2.55882 18.4316 3.04033V17.5876Z" fill="black"/>
</svg>
