<svg width="105" height="27" viewBox="0 0 105 27" fill="none" xmlns="http://www.w3.org/2000/svg">
<g clip-path="url(#clip0_19_250)">
<path d="M0 23.6468V3.60539C0 3.30468 0.18659 3.12683 0.49313 3.12683H7.63352C7.94339 3.12683 8.12665 3.30791 8.12665 3.60539V3.78647C8.12665 4.08719 7.94006 4.26503 7.63352 4.26503H1.23616V13.0538H6.67724C6.98712 13.0538 7.17037 13.2349 7.17037 13.5323V13.7134C7.17037 14.0141 6.98378 14.192 6.67724 14.192H1.23616V23.6404C1.23616 23.9411 1.04957 24.1189 0.743027 24.1189H0.496462C0.18659 24.1189 0.00333196 23.9378 0.00333196 23.6404L0 23.6468Z" fill="white"/>
<path d="M11.7785 24.1254H11.5319C11.2221 24.1254 11.0388 23.9443 11.0388 23.6468V3.60539C11.0388 3.30468 11.2254 3.12683 11.5319 3.12683H11.7785C12.0884 3.12683 12.2716 3.30791 12.2716 3.60539V23.6436C12.2716 23.9443 12.0851 24.1222 11.7785 24.1222V24.1254Z" fill="white"/>
<path d="M24.6366 3.6054V3.78647C24.6366 4.08719 24.45 4.26504 24.1435 4.26504H20.465V23.6436C20.465 23.9443 20.2784 24.1222 19.9719 24.1222H19.7253C19.4154 24.1222 19.2322 23.9411 19.2322 23.6436V4.26827H15.5537C15.2438 4.26827 15.0605 4.08719 15.0605 3.78971V3.60863C15.0605 3.30791 15.2471 3.13007 15.5537 3.13007H24.1468C24.4567 3.13007 24.6399 3.31114 24.6399 3.60863L24.6366 3.6054Z" fill="white"/>
<path d="M48.7131 24.1254H41.5428C40.8631 24.1254 40.5232 23.7665 40.5232 23.1359V4.11629C40.5232 3.48575 40.8631 3.12683 41.5428 3.12683H48.6199C49.2996 3.12683 49.6394 3.48575 49.6394 4.11629V4.62719C49.6394 5.28683 49.2996 5.61665 48.6199 5.61665H43.4253V12.2163H47.6602C48.34 12.2163 48.6798 12.5752 48.6798 13.2058V13.7458C48.6798 14.3763 48.34 14.7352 47.6602 14.7352H43.4253V21.6356H48.7131C49.3929 21.6356 49.7327 21.9654 49.7327 22.625V23.1359C49.7327 23.7665 49.3929 24.1254 48.7131 24.1254Z" fill="white"/>
<path d="M53.9676 24.1254H53.3179C52.6382 24.1254 52.2983 23.7665 52.2983 23.1359V4.11629C52.2983 3.48575 52.6382 3.12683 53.3179 3.12683H54.3375C54.9239 3.12683 55.3271 3.39521 55.5137 3.93521L60.6449 17.584V4.11629C60.6449 3.48575 61.0147 3.12683 61.6645 3.12683H62.3142C62.9939 3.12683 63.3338 3.48575 63.3338 4.11629V23.1359C63.3338 23.7665 62.9939 24.1254 62.3142 24.1254H61.4179C60.8315 24.1254 60.4583 23.857 60.275 23.317L54.9872 9.18647V23.1359C54.9872 23.7665 54.6174 24.1254 53.9676 24.1254Z" fill="white"/>
<path d="M75.792 4.11629V4.62719C75.792 5.28683 75.4522 5.61665 74.7725 5.61665H72.0203V23.1359C72.0203 23.7665 71.6504 24.1254 71.0007 24.1254H70.1344C69.4846 24.1254 69.1148 23.7665 69.1148 23.1359V5.61665H66.3626C65.7129 5.61665 65.343 5.28683 65.343 4.62719V4.11629C65.343 3.48575 65.7129 3.12683 66.3626 3.12683H74.7691C75.4488 3.12683 75.7887 3.48575 75.7887 4.11629H75.792Z" fill="white"/>
<path d="M79.0974 24.1254H78.8508C78.5409 24.1254 78.3577 23.9443 78.3577 23.6468V3.60539C78.3577 3.30468 78.5443 3.12683 78.8508 3.12683H79.0974C79.4072 3.12683 79.5905 3.30791 79.5905 3.60539V23.6436C79.5905 23.9443 79.4039 24.1222 79.0974 24.1222V24.1254Z" fill="white"/>
<path d="M93.5014 3.66683L88.9267 23.705C88.8634 24.0058 88.6801 24.1254 88.4002 24.1254H87.9671C87.6872 24.1254 87.5039 24.0058 87.4406 23.705L82.8658 3.66683C82.8025 3.33701 82.9591 3.12683 83.299 3.12683H83.6089C83.8887 3.12683 84.072 3.24647 84.1353 3.54719L88.217 21.7552L92.2986 3.54719C92.3619 3.24647 92.5452 3.12683 92.8251 3.12683H93.0716C93.4115 3.12683 93.5648 3.33701 93.5048 3.66683H93.5014Z" fill="white"/>
<path d="M104.507 24.1254H97.1499C96.84 24.1254 96.6567 23.9443 96.6567 23.6468V3.60539C96.6567 3.30468 96.8433 3.12683 97.1499 3.12683H104.414C104.723 3.12683 104.907 3.30791 104.907 3.60539V3.78647C104.907 4.08719 104.72 4.26503 104.414 4.26503H97.8896V12.905H103.454C103.764 12.905 103.947 13.0861 103.947 13.3836V13.5647C103.947 13.8654 103.76 14.0432 103.454 14.0432H97.8896V22.984H104.504C104.813 22.984 104.997 23.165 104.997 23.4625V23.6436C104.997 23.9443 104.81 24.1222 104.504 24.1222L104.507 24.1254Z" fill="white"/>
<path d="M35.4221 11.0781H36.2884C36.9681 11.0781 37.308 10.7192 37.308 10.0886V7.32718C37.308 4.76623 35.8919 3.36611 33.4762 2.99425V0.989461C33.4762 0.358922 33.1064 0 32.4567 0H31.5903C30.9406 0 30.5708 0.358922 30.5708 0.989461V2.99425C28.1551 3.36611 26.739 4.76623 26.739 7.32718V19.925C26.739 22.6121 28.1551 23.9249 30.5708 24.2677V26.0073C30.5708 26.6378 30.9406 26.9968 31.5903 26.9968H32.4567C33.1064 26.9968 33.4762 26.6378 33.4762 26.0073V24.2644C35.8919 23.9152 37.308 22.5862 37.308 19.925V16.6559C37.308 16.0254 36.9681 15.6665 36.2884 15.6665H35.4221C34.7724 15.6665 34.4025 16.0254 34.4025 16.6559V19.385C34.4025 21.2152 33.5995 21.8748 32.0235 21.8748C30.4475 21.8748 29.6445 21.2152 29.6445 19.385V7.86718C29.6445 6.03701 30.4475 5.37736 32.0235 5.37736C33.5995 5.37736 34.4025 6.03701 34.4025 7.86718V10.0886C34.4025 10.7192 34.7724 11.0781 35.4221 11.0781Z" fill="white"/>
</g>
<defs>
<clipPath id="clip0_19_250">
<rect width="105" height="27" fill="white"/>
</clipPath>
</defs>
</svg>
