<svg width="23" height="19" viewBox="0 0 23 19" fill="none" xmlns="http://www.w3.org/2000/svg">
<path d="M4.02469 18.948C3.77291 18.8418 3.60872 18.5918 3.60872 18.3144V14.593H2.11731C0.957961 14.593 0 13.6396 0 12.4382V2.15481C0 0.974928 0.936848 0 2.11731 0H20.8827C22.042 0 23 0.953441 23 2.15481V12.4382C23 13.6264 22.0502 14.593 20.8827 14.593H8.89212L4.75899 18.7993C4.55208 19.01 4.25766 19.0462 4.02469 18.948ZM2.11731 1.37148C1.68624 1.37148 1.34766 1.72845 1.34766 2.15481V12.4382C1.34766 12.877 1.69841 13.2215 2.11731 13.2215H4.28255C4.65468 13.2215 4.95638 13.5285 4.95638 13.9073V16.6589L8.13654 13.4224C8.2629 13.2938 8.43428 13.2215 8.61298 13.2215H20.8826C21.307 13.2215 21.6523 12.8701 21.6523 12.4382V2.15481C21.6523 1.71606 21.3015 1.37153 20.8826 1.37153L2.11731 1.37148Z" fill="black"/>
</svg>
