<svg width="104" height="108" viewBox="0 0 104 108" fill="none" xmlns="http://www.w3.org/2000/svg">
<path d="M103 56.5C103 84.9427 79.9427 108 51.5 108C23.0573 108 0 84.9427 0 56.5C0 28.0573 23.0573 5 51.5 5C79.9427 5 103 28.0573 103 56.5Z" fill="#232323"/>
<mask id="path-2-outside-1_15_2016" maskUnits="userSpaceOnUse" x="6" y="11" width="92" height="92" fill="black">
<rect fill="white" x="6" y="11" width="92" height="92"/>
<path fill-rule="evenodd" clip-rule="evenodd" d="M51.8241 101.648C76.5797 101.648 96.6481 81.5797 96.6481 56.8241C96.6481 32.0684 76.5797 12 51.8241 12C27.0684 12 7 32.0684 7 56.8241C7 81.5797 27.0684 101.648 51.8241 101.648ZM51.8241 95.9259C73.4194 95.9259 90.9259 78.4194 90.9259 56.8241C90.9259 35.2287 73.4194 17.7222 51.8241 17.7222C30.2287 17.7222 12.7222 35.2287 12.7222 56.8241C12.7222 78.4194 30.2287 95.9259 51.8241 95.9259Z"/>
</mask>
<path fill-rule="evenodd" clip-rule="evenodd" d="M51.8241 101.648C76.5797 101.648 96.6481 81.5797 96.6481 56.8241C96.6481 32.0684 76.5797 12 51.8241 12C27.0684 12 7 32.0684 7 56.8241C7 81.5797 27.0684 101.648 51.8241 101.648ZM51.8241 95.9259C73.4194 95.9259 90.9259 78.4194 90.9259 56.8241C90.9259 35.2287 73.4194 17.7222 51.8241 17.7222C30.2287 17.7222 12.7222 35.2287 12.7222 56.8241C12.7222 78.4194 30.2287 95.9259 51.8241 95.9259Z" fill="url(#paint0_linear_15_2016)"/>
<path d="M95.6481 56.8241C95.6481 81.0274 76.0274 100.648 51.8241 100.648V102.648C77.132 102.648 97.6481 82.132 97.6481 56.8241H95.6481ZM51.8241 13C76.0274 13 95.6481 32.6207 95.6481 56.8241H97.6481C97.6481 31.5161 77.132 11 51.8241 11V13ZM8 56.8241C8 32.6207 27.6207 13 51.8241 13V11C26.5161 11 6 31.5161 6 56.8241H8ZM51.8241 100.648C27.6207 100.648 8 81.0274 8 56.8241H6C6 82.132 26.5161 102.648 51.8241 102.648V100.648ZM89.9259 56.8241C89.9259 77.8671 72.8671 94.9259 51.8241 94.9259V96.9259C73.9717 96.9259 91.9259 78.9717 91.9259 56.8241H89.9259ZM51.8241 18.7222C72.8671 18.7222 89.9259 35.781 89.9259 56.8241H91.9259C91.9259 34.6764 73.9717 16.7222 51.8241 16.7222V18.7222ZM13.7222 56.8241C13.7222 35.781 30.781 18.7222 51.8241 18.7222V16.7222C29.6764 16.7222 11.7222 34.6764 11.7222 56.8241H13.7222ZM51.8241 94.9259C30.781 94.9259 13.7222 77.8671 13.7222 56.8241H11.7222C11.7222 78.9717 29.6764 96.9259 51.8241 96.9259V94.9259Z" fill="#8EFFA3" mask="url(#path-2-outside-1_15_2016)"/>
<ellipse cx="38.4103" cy="41.0709" rx="23" ry="12.5" transform="rotate(-20.2726 38.4103 41.0709)" fill="#232323"/>
<path d="M54.8121 7.29511L45.3991 10.772C42.8432 11.716 41.5365 14.5535 42.4806 17.1094L43.167 18.9678C36.0155 22.6101 25.7542 26.9355 20.2601 28.9648C11.1178 32.3417 6.42956 42.5214 9.80643 51.6638C12.5167 59.0013 19.6043 63.464 27.0204 63.2013L37.1561 90.642C38.1002 93.1979 40.9376 94.5046 43.4935 93.5606L56.7572 88.6614C59.3132 87.7173 60.6199 84.8799 59.6758 82.324L54.7936 69.1063C56.0939 67.7861 56.5927 65.7849 55.9082 63.9317C55.2236 62.0785 53.5438 60.882 51.6975 60.724L50.1297 56.4795C52.3243 55.8608 54.4591 55.2941 56.4108 54.8233L57.0972 56.6816C58.0413 59.2375 60.8787 60.5442 63.4346 59.6001L72.8476 56.1233C75.4036 55.1792 76.7103 52.3418 75.7662 49.7859L61.1495 10.2137C60.2055 7.65775 57.3681 6.35103 54.8121 7.29511ZM48.7104 81.1148L44.7027 82.5952L36.6059 60.6746C37.8677 60.2472 39.2349 59.7965 40.6665 59.3373L48.7104 81.1148ZM29.0867 52.8613C25.0523 54.3515 20.5526 52.2793 19.0624 48.2449C17.5723 44.2106 19.6445 39.711 23.6789 38.2208C29.1542 36.1984 39.1196 32.0131 46.6072 28.2816L52.9695 45.5065C44.6328 47.5858 34.3556 50.9152 29.0867 52.8613ZM64.8008 48.5769L64.6438 48.6349L53.446 18.3185L53.603 18.2605L64.8008 48.5769Z" fill="white" stroke="#232323" stroke-width="5"/>
<path d="M83.65 18.7436L83.6501 18.7436C89.0028 18.6684 93.4019 22.1517 94.3968 27.4018L94.3968 27.4019C94.8748 29.9249 94.4952 32.564 93.3242 34.8476C92.798 35.8737 92.1316 36.7976 91.3425 37.6025C92.0372 40.0565 90.7362 42.6706 88.3032 43.5693C86.0574 44.3988 83.5943 43.4906 82.3892 41.5242C80.9961 41.6321 79.5703 41.4931 77.8589 41.1006C75.2029 40.4914 73.5441 37.8445 74.1532 35.1889C74.7624 32.5327 77.4093 30.8742 80.0648 31.4831L80.0651 31.4831C81.0148 31.701 81.4033 31.7154 81.7124 31.6813C82.0813 31.6405 82.5423 31.5095 83.6584 31.0888C84.1586 30.9003 84.4139 30.6096 84.5587 30.3111C84.7241 29.97 84.7642 29.5668 84.7021 29.239L84.7021 29.2389C84.6679 29.0584 84.5943 28.8804 84.5087 28.7841C84.4806 28.7524 84.4458 28.7223 84.3788 28.6936C84.3091 28.6636 84.1334 28.605 83.7888 28.6098L83.7886 28.6098C79.8106 28.6655 77.1087 28.452 74.8324 27.7196L74.8323 27.7196C71.5476 26.6627 69.3054 23.7171 68.727 20.2963L83.65 18.7436ZM83.65 18.7436C81.582 18.7727 79.6979 18.7274 78.4493 18.4774M83.65 18.7436L78.4493 18.4774M78.4493 18.4774C78.4512 18.4489 78.4545 18.4231 78.4589 18.4013C78.4601 18.3951 78.4613 18.3897 78.4625 18.3852C79.4935 17.6164 80.3473 17.816 80.5718 17.8825C83.1842 18.6561 85.9292 17.1662 86.7033 14.5537L78.4493 18.4774ZM77.8543 18.3266C77.8545 18.3267 77.8548 18.3268 77.855 18.3269L77.8543 18.3266ZM86.7033 14.5535C87.4774 11.9411 85.9872 9.19585 83.3747 8.42174L86.7033 14.5535ZM83.3745 8.42169C82.7982 8.25091 81.7175 7.9943 80.3285 7.96222C79.1421 5.93955 76.6422 4.99478 74.3657 5.83567C71.9934 6.71191 70.6973 9.2192 71.2781 11.6186C69.1269 13.9023 68.1886 17.1128 68.727 20.2962L83.3745 8.42169Z" fill="white" stroke="#232323" stroke-width="5"/>
<defs>
<linearGradient id="paint0_linear_15_2016" x1="51.8241" y1="12" x2="51.8241" y2="101.648" gradientUnits="userSpaceOnUse">
<stop stop-color="#559962"/>
<stop offset="0.29" stop-color="#8EFFA3"/>
<stop offset="0.475" stop-color="#E6FFEB"/>
<stop offset="0.65" stop-color="#8EFFA3"/>
<stop offset="1" stop-color="#559962"/>
</linearGradient>
</defs>
</svg>
