<svg width="106" height="108" viewBox="0 0 106 108" fill="none" xmlns="http://www.w3.org/2000/svg">
<path d="M105 56.5C105 84.9427 81.9427 108 53.5 108C25.0573 108 2 84.9427 2 56.5C2 28.0573 25.0573 5 53.5 5C81.9427 5 105 28.0573 105 56.5Z" fill="#232323"/>
<mask id="path-2-outside-1_15_1599" maskUnits="userSpaceOnUse" x="8" y="11" width="92" height="92" fill="black">
<rect fill="white" x="8" y="11" width="92" height="92"/>
<path fill-rule="evenodd" clip-rule="evenodd" d="M53.8241 101.648C78.5797 101.648 98.6481 81.5797 98.6481 56.8241C98.6481 32.0684 78.5797 12 53.8241 12C29.0684 12 9 32.0684 9 56.8241C9 81.5797 29.0684 101.648 53.8241 101.648ZM53.8241 95.9259C75.4194 95.9259 92.9259 78.4194 92.9259 56.8241C92.9259 35.2287 75.4194 17.7222 53.8241 17.7222C32.2287 17.7222 14.7222 35.2287 14.7222 56.8241C14.7222 78.4194 32.2287 95.9259 53.8241 95.9259Z"/>
</mask>
<path fill-rule="evenodd" clip-rule="evenodd" d="M53.8241 101.648C78.5797 101.648 98.6481 81.5797 98.6481 56.8241C98.6481 32.0684 78.5797 12 53.8241 12C29.0684 12 9 32.0684 9 56.8241C9 81.5797 29.0684 101.648 53.8241 101.648ZM53.8241 95.9259C75.4194 95.9259 92.9259 78.4194 92.9259 56.8241C92.9259 35.2287 75.4194 17.7222 53.8241 17.7222C32.2287 17.7222 14.7222 35.2287 14.7222 56.8241C14.7222 78.4194 32.2287 95.9259 53.8241 95.9259Z" fill="url(#paint0_linear_15_1599)"/>
<path d="M97.6481 56.8241C97.6481 81.0274 78.0274 100.648 53.8241 100.648V102.648C79.132 102.648 99.6481 82.132 99.6481 56.8241H97.6481ZM53.8241 13C78.0274 13 97.6481 32.6207 97.6481 56.8241H99.6481C99.6481 31.5161 79.132 11 53.8241 11V13ZM10 56.8241C10 32.6207 29.6207 13 53.8241 13V11C28.5161 11 8 31.5161 8 56.8241H10ZM53.8241 100.648C29.6207 100.648 10 81.0274 10 56.8241H8C8 82.132 28.5161 102.648 53.8241 102.648V100.648ZM91.9259 56.8241C91.9259 77.8671 74.8671 94.9259 53.8241 94.9259V96.9259C75.9717 96.9259 93.9259 78.9717 93.9259 56.8241H91.9259ZM53.8241 18.7222C74.8671 18.7222 91.9259 35.781 91.9259 56.8241H93.9259C93.9259 34.6764 75.9717 16.7222 53.8241 16.7222V18.7222ZM15.7222 56.8241C15.7222 35.781 32.781 18.7222 53.8241 18.7222V16.7222C31.6764 16.7222 13.7222 34.6764 13.7222 56.8241H15.7222ZM53.8241 94.9259C32.781 94.9259 15.7222 77.8671 15.7222 56.8241H13.7222C13.7222 78.9717 31.6764 96.9259 53.8241 96.9259V94.9259Z" fill="#00FFBB" mask="url(#path-2-outside-1_15_1599)"/>
<path d="M82.841 12.8303L82.8406 12.8304L5.64597 42.5997L5.64579 42.5998C3.74285 43.3338 2.50388 45.1657 2.50001 47.19C2.49614 49.2141 3.7277 51.051 5.62816 51.7924C5.62821 51.7924 5.62825 51.7924 5.62829 51.7924L25.7223 59.6323V84.5731C25.7223 86.8369 27.2631 88.8312 29.485 89.3649C31.6962 89.8961 33.985 88.8295 35.007 86.7814L35.0072 86.7811L42.6378 71.4843L62.1266 86.0952C62.1266 86.0952 62.1266 86.0952 62.1267 86.0952C64.8649 88.1483 68.769 86.8219 69.749 83.577L69.7491 83.5768C75.1677 65.6295 79.0875 52.6479 81.9229 43.2574C84.4342 34.9404 86.0949 29.4403 87.1931 25.802C88.3619 21.93 88.8943 20.1642 89.1367 19.356C89.2551 18.9613 89.3101 18.7757 89.3359 18.6844C89.3425 18.6612 89.353 18.6236 89.3635 18.5821L89.3641 18.5798C89.3684 18.5633 89.3887 18.4843 89.4072 18.3758C90.1339 14.6493 86.5001 11.4198 82.841 12.8303ZM89.4428 17.9818C89.4417 18.0702 89.4358 18.1512 89.4282 18.2209C89.4382 18.0948 89.4441 17.8058 89.4447 17.8058C89.445 17.8058 89.4443 17.8541 89.4428 17.9818ZM29.927 50.7026L21.0169 47.2263L50.6353 35.8043L29.927 50.7026ZM35.5269 58.792L46.3562 51.0011C43.393 54.1586 41.385 56.2983 40.0234 57.7499C38.4393 59.4389 37.7247 60.2023 37.3989 60.5535C37.254 60.7097 37.1454 60.8276 37.0729 60.9134C37.0463 60.9449 36.9929 61.0086 36.9295 61.0978C36.916 61.1152 36.9011 61.1348 36.8853 61.1563C36.7673 61.3168 36.6831 61.4671 36.6311 61.5624C36.5284 61.7503 36.3556 62.0909 36.0252 62.7503C35.8911 63.018 35.7274 63.3456 35.5269 63.7472V58.792ZM36.7973 61.3035C36.7713 61.3484 36.7777 61.3357 36.8017 61.2958C36.8002 61.2983 36.7988 61.3009 36.7973 61.3035ZM73.8467 36.068L62.3937 74.0021L48.2216 63.3771L73.8467 36.068Z" fill="white" stroke="black" stroke-width="5"/>
<defs>
<linearGradient id="paint0_linear_15_1599" x1="53.8241" y1="12" x2="53.8241" y2="101.648" gradientUnits="userSpaceOnUse">
<stop stop-color="#016248"/>
<stop offset="0.29" stop-color="#00FFBB"/>
<stop offset="0.475" stop-color="#DCFFF6"/>
<stop offset="0.65" stop-color="#00FFBB"/>
<stop offset="1" stop-color="#016248"/>
</linearGradient>
</defs>
</svg>
