<svg width="26" height="31" viewBox="0 0 26 31" fill="none" xmlns="http://www.w3.org/2000/svg">
<path d="M12.7359 14.9328C14.7874 14.9328 16.5636 14.197 18.0153 12.7453C19.4666 11.2938 20.2026 9.51788 20.2026 7.46616C20.2026 5.41514 19.4668 3.63895 18.0151 2.18701C16.5634 0.735783 14.7872 0 12.7359 0C10.6842 0 8.90824 0.735783 7.45677 2.18725C6.00531 3.63871 5.26929 5.4149 5.26929 7.46616C5.26929 9.51788 6.00531 11.2941 7.45677 12.7455C8.90871 14.1968 10.6849 14.9328 12.7359 14.9328ZM8.7415 3.47173C9.85523 2.35801 11.1617 1.81664 12.7359 1.81664C14.3099 1.81664 15.6166 2.35801 16.7306 3.47173C17.8443 4.5857 18.3859 5.89242 18.3859 7.46616C18.3859 9.04037 17.8443 10.3469 16.7306 11.4608C15.6166 12.5748 14.3099 13.1161 12.7359 13.1161C11.1622 13.1161 9.8557 12.5745 8.7415 11.4608C7.62754 10.3471 7.08593 9.04037 7.08593 7.46616C7.08593 5.89242 7.62754 4.5857 8.7415 3.47173Z" fill="white"/>
<path d="M25.8007 23.8374C25.7589 23.2333 25.6742 22.5744 25.5495 21.8786C25.4237 21.1776 25.2617 20.5149 25.0678 19.9092C24.8672 19.2831 24.595 18.6649 24.258 18.0724C23.9086 17.4575 23.498 16.922 23.0373 16.4814C22.5556 16.0205 21.9657 15.6499 21.2836 15.3795C20.6039 15.1106 19.8506 14.9744 19.0448 14.9744C18.7283 14.9744 18.4223 15.1042 17.8313 15.489C17.4675 15.7263 17.042 16.0006 16.5671 16.304C16.161 16.5628 15.6109 16.8052 14.9314 17.0247C14.2685 17.2392 13.5953 17.348 12.9307 17.348C12.2666 17.348 11.5935 17.2392 10.9301 17.0247C10.2513 16.8055 9.70096 16.563 9.29558 16.3043C8.82516 16.0037 8.39944 15.7293 8.03025 15.4888C7.43968 15.104 7.13364 14.9742 6.81718 14.9742C6.01116 14.9742 5.25811 15.1106 4.57861 15.3798C3.89699 15.6496 3.30689 16.0202 2.82465 16.4817C2.36392 16.9225 1.95334 17.4577 1.60425 18.0724C1.2677 18.6649 0.995237 19.2829 0.794676 19.9094C0.600974 20.5151 0.438964 21.1776 0.31314 21.8786C0.188263 22.5735 0.103828 23.2326 0.0619658 23.8381C0.0208129 24.4301 0 25.0462 0 25.6687C0 27.2869 0.514411 28.5969 1.52881 29.563C2.53066 30.5164 3.85607 30.9998 5.46836 30.9998H20.395C22.0068 30.9998 23.3323 30.5164 24.3344 29.563C25.349 28.5976 25.8634 27.2871 25.8634 25.6684C25.8632 25.0438 25.8421 24.4277 25.8007 23.8374ZM23.0818 28.2469C22.4198 28.8769 21.5409 29.1832 20.3948 29.1832H5.46836C4.322 29.1832 3.44312 28.8769 2.78137 28.2471C2.13214 27.6291 1.81664 26.7855 1.81664 25.6687C1.81664 25.0878 1.8358 24.5143 1.87411 23.9637C1.91148 23.4235 1.98787 22.8301 2.10116 22.1995C2.21303 21.5768 2.35541 20.9924 2.52475 20.4633C2.68723 19.956 2.90885 19.4537 3.18367 18.9698C3.44596 18.5086 3.74775 18.1129 4.08076 17.7941C4.39224 17.4958 4.78485 17.2517 5.24746 17.0687C5.67531 16.8993 6.15614 16.8066 6.67812 16.7927C6.74174 16.8265 6.85503 16.8911 7.03856 17.0107C7.41201 17.2541 7.84246 17.5318 8.31832 17.8357C8.85472 18.1777 9.54581 18.4866 10.3715 18.7531C11.2156 19.026 12.0765 19.1646 12.931 19.1646C13.7855 19.1646 14.6466 19.026 15.4903 18.7533C16.3166 18.4863 17.0075 18.1777 17.5446 17.8352C18.0316 17.524 18.45 17.2543 18.8234 17.0107C19.0069 16.8913 19.1202 16.8265 19.1839 16.7927C19.7061 16.8066 20.1869 16.8993 20.615 17.0687C21.0774 17.2517 21.47 17.4961 21.7815 17.7941C22.1145 18.1126 22.4162 18.5083 22.6785 18.97C22.9536 19.4537 23.1754 19.9562 23.3377 20.4631C23.5073 20.9929 23.6499 21.577 23.7615 22.1993C23.8746 22.831 23.9512 23.4247 23.9886 23.9639V23.9644C24.0271 24.5128 24.0465 25.0861 24.0468 25.6687C24.0465 26.7857 23.731 27.6291 23.0818 28.2469Z" fill="white"/>
</svg>
