<svg width="143" height="100" viewBox="0 0 143 100" fill="none" xmlns="http://www.w3.org/2000/svg">
<path d="M138.811 0H88.1371C85.8234 0 83.9477 1.87343 83.9477 4.18425V20.931C83.9477 23.2418 85.8234 25.1153 88.1371 25.1153H100.074L73.6014 51.5547L61.0506 39.0193C56.149 34.1279 48.1728 34.1279 43.2695 39.0207L1.22692 81.0141C-0.408926 82.6479 -0.408926 85.2971 1.22664 86.9312L13.0814 98.774C13.8671 99.5587 14.9326 99.9997 16.0439 100C17.1549 100 18.221 99.559 19.0064 98.7743L52.1617 65.6601L64.7089 78.1939C67.084 80.5664 70.242 81.8727 73.6009 81.8727C76.9602 81.8727 80.118 80.5658 82.4909 78.1939L117.853 42.8755V54.7972C117.853 57.1081 119.729 58.9815 122.043 58.9815H138.811C141.124 58.9815 143 57.1081 143 54.7972V4.18425C143 1.87343 141.124 0 138.811 0ZM134.621 50.6133H126.232V32.7738C126.232 31.0815 125.212 29.5556 123.646 28.9082C122.081 28.2613 120.279 28.6186 119.08 29.8153L76.5653 72.2777C75.7741 73.0685 74.7214 73.5042 73.6014 73.5042C72.4806 73.5042 71.4268 73.0682 70.6342 72.2768L55.1248 56.7839C54.3391 55.9992 53.2736 55.5579 52.1623 55.5579C51.0513 55.5579 49.9855 55.999 49.2001 56.7836L16.0447 89.8978L10.1139 83.9729L49.1934 44.9394C50.8295 43.3064 53.492 43.3062 55.1276 44.938L70.6395 60.4309C71.4251 61.2156 72.4906 61.6566 73.602 61.6566C74.7133 61.6566 75.7788 61.2159 76.5642 60.4309L113.151 23.8896C114.349 22.6929 114.707 20.8931 114.059 19.3296C113.411 17.7661 111.883 16.7465 110.189 16.7465H92.3272V8.36822H134.621V50.6133Z" fill="url(#paint0_linear_195_1741)"/>
<defs>
<linearGradient id="paint0_linear_195_1741" x1="75" y1="31" x2="30" y2="76.5" gradientUnits="userSpaceOnUse">
<stop stop-color="#05BD8B"/>
<stop offset="1" stop-color="#016A4E"/>
</linearGradient>
</defs>
</svg>
