<svg width="143" height="95" viewBox="0 0 143 95" fill="none" xmlns="http://www.w3.org/2000/svg">
<path d="M4.18945 0H54.8629C57.1766 0 59.0523 1.87343 59.0523 4.18425V20.931C59.0523 23.2418 57.1766 25.1153 54.8629 25.1153H42.926L69.3986 51.5547L81.9494 39.0193C86.851 34.1279 94.8272 34.1279 99.7305 39.0207L141.773 81.0141C143.409 82.6479 143.409 85.2971 141.773 86.9312L129.919 98.774C129.133 99.5587 128.067 99.9997 126.956 100C125.845 100 124.779 99.559 123.994 98.7743L90.8383 65.6601L78.2911 78.1939C75.916 80.5664 72.758 81.8727 69.3991 81.8727C66.0398 81.8727 62.882 80.5658 60.5091 78.1939L25.1465 42.8755V54.7972C25.1465 57.1081 23.2707 58.9815 20.957 58.9815H4.18945C1.87576 58.9815 0 57.1081 0 54.7972V4.18425C0 1.87343 1.87576 0 4.18945 0ZM8.37891 50.6133H16.7676V32.7738C16.7676 31.0815 17.7881 29.5556 19.3539 28.9082C20.9188 28.2613 22.7214 28.6186 23.9195 29.8153L66.4347 72.2777C67.2259 73.0685 68.2786 73.5042 69.3986 73.5042C70.5194 73.5042 71.5732 73.0682 72.3658 72.2768L87.8752 56.7839C88.6609 55.9992 89.7264 55.5579 90.8377 55.5579C91.9487 55.5579 93.0145 55.999 93.7999 56.7836L126.955 89.8978L132.886 83.9729L93.8066 44.9394C92.1705 43.3064 89.508 43.3062 87.8724 44.938L72.3605 60.4309C71.5749 61.2156 70.5094 61.6566 69.398 61.6566C68.2867 61.6566 67.2212 61.2159 66.4358 60.4309L29.849 23.8896C28.6508 22.6929 28.2925 20.8931 28.9408 19.3296C29.5893 17.7661 31.117 16.7465 32.8112 16.7465H50.6728V8.36822H8.37891V50.6133Z" fill="url(#paint0_linear_195_1887)"/>
<defs>
<linearGradient id="paint0_linear_195_1887" x1="68" y1="31" x2="113" y2="76.5" gradientUnits="userSpaceOnUse">
<stop stop-color="#05BD8B"/>
<stop offset="1" stop-color="#016A4E"/>
</linearGradient>
</defs>
</svg>
